<?xml version="1.0" standalone="no"?>
<svg xmlns="http://www.w3.org/2000/svg" viewBox="0 0 161.544 29" width="161.544" height="29"><g fill="#000000" color="#000000" transform="translate(0, 0) scale(0.453125)"><svg width="64.0" height="64.0" x="0.0" y="0.0" viewBox="0 0 64 64"><g><g><path d="M32.007,37.021c-1.635,0-3.172-0.797-4.113-2.132c-1.592-2.263-1.046-5.4,1.217-6.994c0.85-0.599,1.847-0.915,2.883-0.915    c1.635,0,3.172,0.797,4.113,2.132c1.592,2.263,1.046,5.401-1.217,6.995C34.04,36.704,33.043,37.021,32.007,37.021L32.007,37.021z"></path><path d="M31.995,27.979c1.31,0,2.542,0.639,3.294,1.707c1.275,1.813,0.838,4.325-0.975,5.602    c-0.681,0.479-1.479,0.732-2.307,0.732c-1.31,0-2.542-0.638-3.294-1.707c-1.276-1.812-0.838-4.325,0.974-5.601    C30.368,28.233,31.166,27.979,31.995,27.979 M31.995,25.979c-1.197,0-2.405,0.356-3.458,1.097    c-2.719,1.914-3.372,5.67-1.459,8.388c1.173,1.666,3.037,2.556,4.93,2.556c1.197,0,2.406-0.355,3.458-1.097    c2.719-1.914,3.372-5.669,1.459-8.388C35.752,26.87,33.888,25.979,31.995,25.979L31.995,25.979z"></path></g><g><path d="M2.123,40.289C-1.396,27.655,3.357,14.25,14.159,6.649C19.41,2.953,25.568,1,31.966,1c6.363,0,12.655,1.989,17.839,5.619    c-2.394,2.683-6.271,7.076-11.552,13.09c-1.94-0.986-4.095-1.503-6.281-1.503c-2.844,0-5.581,0.868-7.914,2.509    c-4.221,2.972-6.413,8.055-5.728,13.136C10.977,36.751,5.537,38.912,2.123,40.289z"></path><path d="M31.964,0l0.001,2c5.781,0,11.501,1.696,16.33,4.81C45.959,9.437,42.51,13.347,38,18.481    c-1.892-0.838-3.946-1.276-6.028-1.276c-3.051,0-5.986,0.931-8.49,2.692c-4.31,3.034-6.646,8.121-6.227,13.303    c-6.292,2.483-11.134,4.405-14.45,5.737C-0.042,27.033,4.589,14.605,14.734,7.467C19.816,3.89,25.774,2,31.964,2V0 M31.966,0    c-6.362,0-12.784,1.892-18.383,5.832C1.894,14.057-2.608,28.687,1.478,41.628c2.821-1.144,8.096-3.249,17.972-7.145    c-0.948-4.811,0.916-9.947,5.185-12.952c2.236-1.573,4.799-2.327,7.338-2.327c2.272,0,4.524,0.604,6.504,1.765    C45.63,12.822,49.349,8.624,51.287,6.46C45.673,2.22,38.855,0,31.966,0L31.966,0z"></path></g><g><path d="M44.632,26.457c-0.371-0.853-0.821-1.656-1.345-2.399c-0.508-0.721-1.095-1.398-1.753-2.023    c3.835-4.365,8.533-9.696,11.394-12.91c1.65,1.513,3.137,3.203,4.427,5.035c1.307,1.858,2.406,3.849,3.274,5.931    C56.64,21.698,50.035,24.32,44.632,26.457z"></path><path d="M52.989,10.56c1.306,1.28,2.494,2.678,3.547,4.174c1.07,1.521,1.995,3.133,2.764,4.813    c-3.799,1.526-9.36,3.735-14.166,5.636c-0.306-0.594-0.649-1.162-1.029-1.702c-0.364-0.518-0.767-1.014-1.205-1.487    C46.312,18.113,50.27,13.623,52.989,10.56 M52.846,7.713c-2.848,3.189-8.382,9.47-12.721,14.409    c0.869,0.715,1.665,1.546,2.345,2.511c0.693,0.985,1.217,2.038,1.598,3.122c6.108-2.414,13.888-5.503,17.858-7.11    c-0.931-2.449-2.178-4.821-3.754-7.062C56.609,11.364,54.814,9.407,52.846,7.713L52.846,7.713z"></path></g><g><path d="M11.054,54.857c-1.644-1.509-3.123-3.192-4.406-5.016c-1.269-1.804-2.345-3.741-3.206-5.773    c4.123-1.658,10.693-4.262,16.005-6.357c0.358,0.795,0.782,1.543,1.267,2.231c0.499,0.709,1.077,1.377,1.727,1.997    C18.84,46.042,14.066,51.468,11.054,54.857z"></path><path d="M18.956,38.979c0.284,0.538,0.599,1.052,0.941,1.539c0.357,0.507,0.751,0.994,1.18,1.459    c-3.242,3.693-7.251,8.247-10.084,11.443c-1.298-1.275-2.48-2.667-3.527-4.155c-1.033-1.467-1.933-3.027-2.689-4.656    C8.67,43.049,14.216,40.851,18.956,38.979 M19.999,36.418c-5.971,2.354-13.704,5.419-17.859,7.097    c0.925,2.392,2.148,4.711,3.69,6.902c1.557,2.212,3.347,4.164,5.307,5.853c2.985-3.352,8.475-9.588,12.711-14.417    c-0.857-0.71-1.644-1.531-2.315-2.485C20.876,38.434,20.376,37.44,19.999,36.418L19.999,36.418z"></path></g><g><path d="M32.036,63.001C25.663,63,19.363,61.006,14.175,57.366c2.442-2.743,6.314-7.137,11.538-13.091    c1.949,0.997,4.115,1.521,6.314,1.521c2.845-0.001,5.583-0.869,7.916-2.512c4.151-2.92,6.351-7.931,5.747-12.946    c7.452-2.945,12.901-5.113,16.232-6.459c3.426,12.582-1.344,25.917-12.079,33.471c-5.252,3.695-11.409,5.649-17.806,5.649    C32.037,63.001,32.037,63.001,32.036,63.001z"></path><path d="M61.233,25.236c2.759,11.849-1.887,24.205-11.966,31.297c-5.082,3.577-11.041,5.468-17.231,5.468    c-5.791,0-11.52-1.701-16.354-4.825c2.369-2.668,5.814-6.579,10.283-11.671c1.901,0.849,3.968,1.292,6.062,1.292    c3.053,0,5.988-0.932,8.491-2.693c4.239-2.981,6.581-7.995,6.237-13.11C53.12,28.478,57.972,26.549,61.233,25.236 M62.573,22.538    c-2.699,1.098-7.914,3.184-17.99,7.164c0.865,4.757-1,9.801-5.215,12.766c-2.236,1.574-4.801,2.329-7.341,2.329    c-2.284,0-4.548-0.61-6.536-1.784c-6.996,7.976-10.763,12.235-12.797,14.512c5.619,4.251,12.444,6.477,19.342,6.477    c6.361,0,12.784-1.892,18.383-5.832C62.06,49.979,66.569,35.438,62.573,22.538L62.573,22.538z"></path></g></g></svg></g><line x1="41" y1="1" x2="41" y2="28" stroke="#fe0b01" stroke-linecap="round"></line><path fill="#fe0b01" fill-rule="nonzero" d="M8.18 21.67L2.54 21.67L0 1.03L3.94 1.03L5.45 15.07L6.79 1.03L10.73 1.03L8.18 21.67ZM16.01 2.93L11.81 2.93L11.81 0L16.01 0L16.01 2.93ZM16.01 21.67L11.81 21.67L11.81 4.10L16.01 4.10L16.01 21.67ZM21.12 21.86Q19.58 21.86 18.80 21.13Q18.02 20.40 17.77 19.19Q17.52 17.98 17.52 16.08L17.52 16.08L17.57 8.16Q17.57 6.29 18.52 5.10Q19.46 3.91 21.19 3.91L21.19 3.91Q22.90 3.91 23.74 5.04L23.74 5.04L23.74 0.94L27.94 0.94L27.94 21.67L23.74 21.67L23.74 19.80Q23.38 20.83 22.76 21.35Q22.15 21.86 21.12 21.86L21.12 21.86ZM22.73 18.58Q23.35 18.58 23.54 17.96Q23.74 17.35 23.74 16.32L23.74 16.32L23.74 15.58L23.74 8.98Q23.74 8.21 23.52 7.68Q23.30 7.15 22.75 7.15L22.75 7.15Q22.13 7.15 21.92 7.64Q21.72 8.14 21.72 8.98L21.72 8.98L21.72 16.37Q21.72 18.58 22.73 18.58L22.73 18.58ZM34.54 21.86Q31.82 21.86 30.65 20.38Q29.47 18.89 29.47 15.94L29.47 15.94L29.47 8.88Q29.47 6.46 30.86 5.18Q32.26 3.91 34.75 3.91L34.75 3.91Q39.82 3.91 39.82 8.88L39.82 8.88L39.82 10.15Q39.82 12.07 39.77 13.27L39.77 13.27L33.67 13.27L33.67 16.68Q33.67 17.59 33.86 18.11Q34.06 18.62 34.68 18.62L34.68 18.62Q35.16 18.62 35.36 18.34Q35.57 18.05 35.60 17.68Q35.64 17.30 35.64 16.58L35.64 16.58L35.64 14.88L39.82 14.88L39.82 15.89Q39.82 18.96 38.63 20.41Q37.44 21.86 34.54 21.86L34.54 21.86ZM33.65 11.18L35.64 11.18L35.64 8.93Q35.64 7.03 34.70 7.03L34.70 7.03Q33.65 7.03 33.65 8.93L33.65 8.93L33.65 11.18ZM46.44 21.86Q41.18 21.86 41.18 16.42L41.18 16.42L41.18 9.36Q41.18 6.86 42.59 5.39Q43.99 3.91 46.44 3.91L46.44 3.91Q48.89 3.91 50.29 5.39Q51.70 6.86 51.70 9.36L51.70 9.36L51.70 16.42Q51.70 21.86 46.44 21.86L46.44 21.86ZM46.44 18.62Q46.94 18.62 47.18 18.26Q47.42 17.90 47.42 17.28L47.42 17.28L47.42 8.69Q47.42 7.15 46.44 7.15L46.44 7.15Q45.46 7.15 45.46 8.69L45.46 8.69L45.46 17.28Q45.46 17.90 45.70 18.26Q45.94 18.62 46.44 18.62L46.44 18.62ZM57.05 21.67L53.33 21.67L53.33 1.06L59.62 1.06L61.34 13.63L63.07 1.06L69.41 1.06L69.41 21.67L65.64 21.67L65.64 6.82L63.26 21.67L59.57 21.67L57.05 6.82L57.05 21.67ZM74.35 21.86Q72.31 21.86 71.56 20.51Q70.80 19.15 70.80 16.63L70.80 16.63Q70.80 14.57 71.34 13.46Q71.88 12.36 72.84 11.84Q73.80 11.33 75.77 10.70L75.77 10.70L76.92 10.32L76.92 10.27L76.92 8.52Q76.92 7.82 76.64 7.45Q76.37 7.08 75.98 7.08L75.98 7.08Q75.65 7.08 75.40 7.39Q75.14 7.70 75.14 8.23L75.14 8.23L75.14 9.29L71.06 9.29L71.06 8.71Q71.06 6.12 72.28 5.02Q73.49 3.91 76.22 3.91L76.22 3.91Q78.41 3.91 79.78 5.05Q81.14 6.19 81.14 8.28L81.14 8.28L81.14 21.67L76.97 21.67L76.97 19.58Q76.66 20.66 75.97 21.26Q75.29 21.86 74.35 21.86L74.35 21.86ZM76.01 18.60Q76.49 18.60 76.69 18.20Q76.90 17.81 76.90 17.23L76.90 17.23L76.90 12.34Q75.96 12.70 75.52 13.25Q75.07 13.80 75.07 14.78L75.07 14.78L75.07 17.04Q75.07 18.60 76.01 18.60L76.01 18.60ZM82.75 21.67L82.75 4.10L86.95 4.10L86.95 6.34Q87.22 5.26 87.86 4.58Q88.51 3.91 89.59 3.91L89.59 3.91Q91.37 3.91 92.22 5.00Q93.07 6.10 93.07 8.11L93.07 8.11L93.07 21.67L88.94 21.67L88.94 8.54Q88.94 7.97 88.72 7.56Q88.49 7.15 88.01 7.15L88.01 7.15Q87.36 7.15 87.16 7.74Q86.95 8.33 86.95 9.31L86.95 9.31L86.95 21.67L82.75 21.67ZM98.90 2.93L94.70 2.93L94.70 0L98.90 0L98.90 2.93ZM98.90 21.67L94.70 21.67L94.70 4.10L98.90 4.10L98.90 21.67ZM103.75 21.86Q101.71 21.86 100.96 20.51Q100.20 19.15 100.20 16.63L100.20 16.63Q100.20 14.57 100.74 13.46Q101.28 12.36 102.24 11.84Q103.20 11.33 105.17 10.70L105.17 10.70L106.32 10.32L106.32 10.27L106.32 8.52Q106.32 7.82 106.04 7.45Q105.77 7.08 105.38 7.08L105.38 7.08Q105.05 7.08 104.80 7.39Q104.54 7.70 104.54 8.23L104.54 8.23L104.54 9.29L100.46 9.29L100.46 8.71Q100.46 6.12 101.68 5.02Q102.89 3.91 105.62 3.91L105.62 3.91Q107.81 3.91 109.18 5.05Q110.54 6.19 110.54 8.28L110.54 8.28L110.54 21.67L106.37 21.67L106.37 19.58Q106.06 20.66 105.37 21.26Q104.69 21.86 103.75 21.86L103.75 21.86ZM105.41 18.60Q105.89 18.60 106.09 18.20Q106.30 17.81 106.30 17.23L106.30 17.23L106.30 12.34Q105.36 12.70 104.92 13.25Q104.47 13.80 104.47 14.78L104.47 14.78L104.47 17.04Q104.47 18.60 105.41 18.60L105.41 18.60Z" transform="translate(51, 3.664)"></path></svg>